<?xml version="1.0" standalone="no"?>
<!DOCTYPE svg PUBLIC "-//W3C//DTD SVG 20010904//EN"
 "http://www.w3.org/TR/2001/REC-SVG-20010904/DTD/svg10.dtd">
<svg version="1.0" xmlns="http://www.w3.org/2000/svg"
 width="700.000000pt" height="700.000000pt" viewBox="0 0 700.000000 700.000000"
 preserveAspectRatio="xMidYMid meet">
<metadata>
Created by potrace 1.11, written by Peter Selinger 2001-2013
</metadata>
<g transform="translate(0.000000,700.000000) scale(0.100000,-0.100000)"
fill="#000000" stroke="none">
<path d="M3478 6565 c-1 -1 -37 -6 -78 -9 -87 -7 -113 -11 -193 -32 -269 -69
-538 -266 -685 -500 -30 -47 -34 -50 -74 -51 -44 0 -123 -9 -168 -18 -14 -2
-38 -7 -55 -11 -102 -20 -284 -99 -384 -166 -242 -163 -409 -399 -481 -678
-26 -103 -32 -157 -32 -280 0 -193 30 -328 117 -517 l37 -82 -20 -33 c-27 -44
-91 -211 -102 -268 -5 -25 -12 -56 -15 -70 -13 -62 -17 -112 -17 -205 -1 -213
38 -368 139 -555 25 -47 48 -87 52 -90 4 -3 15 -18 24 -33 25 -39 53 -71 117
-137 149 -151 345 -261 557 -312 48 -11 89 -22 90 -22 2 -2 -19 -148 -42 -291
-13 -84 -18 -115 -31 -205 -3 -19 -11 -75 -19 -125 -8 -49 -24 -148 -34 -220
-11 -71 -23 -148 -26 -170 -3 -22 -11 -69 -16 -105 -5 -36 -12 -76 -14 -90 -7
-41 -24 -152 -30 -195 -7 -43 -21 -135 -31 -200 -3 -22 -9 -59 -13 -82 -33
-176 56 -326 217 -367 95 -25 116 -17 694 272 l537 268 540 -269 c489 -244
545 -270 601 -274 76 -7 143 11 195 51 50 39 59 50 92 111 29 55 35 124 19
225 -4 30 -10 67 -12 83 -2 15 -6 39 -9 55 -5 29 -43 273 -51 331 -2 19 -7 48
-10 65 -3 17 -7 45 -9 62 -3 17 -11 74 -19 125 -8 52 -18 112 -21 134 -3 23
-8 52 -10 65 -3 14 -7 43 -10 65 -3 22 -7 51 -10 65 -3 14 -7 41 -10 60 -2 20
-11 78 -19 130 -8 52 -17 113 -21 135 -5 37 -12 78 -21 130 -2 11 -6 40 -9 65
-3 25 -8 57 -11 72 -5 25 -3 27 53 38 63 12 117 27 148 40 11 4 49 20 84 34
329 136 590 452 670 811 54 241 17 537 -95 761 l-36 71 30 59 c33 66 88 220
97 274 3 19 11 55 16 80 15 63 14 271 -1 360 -52 314 -230 594 -490 771 -108
73 -303 158 -399 174 -19 3 -37 8 -41 10 -6 4 -75 12 -170 20 -25 2 -47 4 -50
4 -3 1 -14 16 -25 34 -62 107 -199 252 -317 334 -181 127 -371 196 -577 209
-47 3 -91 7 -98 9 -6 2 -13 2 -15 0z m314 -1890 c4 -6 160 -10 437 -9 237 0
431 -1 431 -3 0 -2 -128 -131 -285 -288 -157 -157 -285 -290 -285 -298 0 -7
63 -201 140 -432 77 -231 140 -423 140 -426 0 -4 -196 123 -435 282 l-435 290
-435 -289 c-239 -159 -435 -287 -435 -283 0 3 29 94 65 201 157 468 215 647
215 658 0 7 -128 140 -285 297 -157 157 -285 286 -285 288 0 2 192 3 426 3
234 -1 430 2 436 5 6 4 73 194 149 423 76 230 142 422 145 428 4 6 70 -180
148 -413 78 -233 144 -428 148 -434z m-872 -2619 c125 -73 299 -133 440 -151
58 -8 211 -8 276 -1 141 16 343 86 458 160 32 20 60 35 62 33 5 -5 23 -113 58
-347 3 -19 8 -44 10 -56 2 -12 7 -45 11 -75 4 -30 11 -75 16 -101 4 -26 11
-69 14 -95 4 -26 8 -59 11 -73 14 -83 16 -100 10 -100 -3 0 -151 72 -329 161
-177 89 -340 168 -362 176 -44 16 -154 19 -182 5 -106 -55 -693 -342 -698
-342 -6 0 3 98 10 110 2 3 6 28 9 55 4 28 9 61 11 75 11 70 14 89 20 130 3 25
10 68 15 95 5 28 12 75 16 105 4 30 8 57 9 60 1 3 5 30 9 60 5 30 10 62 11 70
1 8 6 35 10 59 4 24 10 39 14 34 3 -5 35 -27 71 -47z"/>
</g>
</svg>
